# File created by Blade
# Date/Time:  Wed Jan 21 17:34:04 2015
# Frame Rate: 120.000 fps
#------------------------------------------------------
:FULLY-SPECIFIED
:DEGREES
1271
root 19.616568 7.006401 -14.565984 -214.762113 11.927149 -149.161310
Spine 58.069366 -13.824023 18.709163
Head 20.202259 2.996222 -1.550418
LeftShoulder -0.143493 -16.782795 18.214491
LeftArm -15.244673 34.586663 -99.323392
LeftForeArm -36.167941 -0.000000 15.933528
LeftHand -5.774023 0.000000 6.658475
LeftHandThumb1 -26.253704 0.000000 33.147579
RightShoulder -8.389953 -17.685382 7.901863
RightArm 12.671266 -28.039509 66.226328
RightForeArm -26.957763 -0.000000 38.939253
RightHand -14.686224 0.000000 -23.029722
RightHandThumb1 -24.326973 -0.000000 -32.862282
LeftUpLeg -95.605921 20.605419 -34.857136
LeftLeg 128.645046 -0.000000 -0.000000
LeftFoot 29.351278 7.625798 0.414086
LeftToeBase 22.032085 -0.000000 -0.000000
RightUpLeg -92.077966 -20.852101 2.957207
RightLeg 146.287204 -0.000000 -0.000000
RightFoot 42.019214 -17.633023 -2.498958
RightToeBase -57.125239 -0.000000 0.000000
1272
root 19.621783 7.151675 -14.506277 -214.601184 11.548636 -149.251542
Spine 58.359904 -13.479998 18.644342
Head 19.858677 3.018658 -1.472395
LeftShoulder 0.133042 -17.189510 17.822540
LeftArm -14.311942 34.788412 -98.576000
LeftForeArm -36.269517 -0.000000 14.369208
LeftHand -5.341967 -0.000000 5.805974
LeftHandThumb1 -26.253704 0.000000 33.147579
RightShoulder -8.350797 -17.610978 8.616149
RightArm 13.997193 -28.129281 65.232495
RightForeArm -26.382263 0.000000 37.286052
RightHand -14.305443 -0.000000 -22.459362
RightHandThumb1 -24.326973 -0.000000 -32.862282
LeftUpLeg -95.344598 19.315477 -34.437761
LeftLeg 128.644008 -0.000000 -0.000000
LeftFoot 28.597412 6.863315 -0.298931
LeftToeBase 23.293817 -0.000000 -0.000000
RightUpLeg -91.559447 -20.757049 2.891167
RightLeg 146.040187 -0.000000 -0.000000
RightFoot 41.465397 -17.533750 -2.205359
RightToeBase -57.339959 -0.000000 0.000000
1273
root 19.598788 7.309734 -14.455186 -214.624491 11.100404 -149.424717
Spine 58.933652 -13.362623 18.284667
Head 19.351850 3.242890 -1.596934
LeftShoulder 0.181496 -17.503626 17.372034
LeftArm -13.288185 35.044718 -97.734239
LeftForeArm -36.210781 0.000000 12.909271
LeftHand -5.055859 -0.000000 5.321829
LeftHandThumb1 -26.253704 0.000000 33.147579
RightShoulder -7.937248 -17.141405 9.062826
RightArm 14.958045 -28.436751 64.473795
RightForeArm -25.926322 0.000000 35.456913
RightHand -13.973553 -0.000000 -21.915268
RightHandThumb1 -24.326973 -0.000000 -32.862282
LeftUpLeg -94.838782 18.136834 -34.075368
LeftLeg 128.565024 -0.000000 -0.000000
LeftFoot 27.856994 5.881117 -0.857678
LeftToeBase 24.434800 -0.000000 -0.000000
RightUpLeg -90.774658 -20.777978 2.557057
RightLeg 145.775840 -0.000000 -0.000000
RightFoot 40.893569 -17.371092 -1.997192
RightToeBase -56.662716 -0.000000 0.000000
1274
root 19.592199 7.467195 -14.416455 -214.607996 10.742343 -149.610469
Spine 59.379166 -13.021260 18.060728
Head 19.014870 3.314605 -1.561765
LeftShoulder 0.344278 -17.704512 16.897046
LeftArm -12.131278 35.324152 -96.793297
LeftForeArm -36.200412 -0.000000 11.379094
LeftHand -4.689371 0.000000 4.711364
LeftHandThumb1 -26.253704 0.000000 33.147579
RightShoulder -7.664138 -16.912377 9.640782
RightArm 16.146762 -28.752664 63.515161
RightForeArm -25.202639 -0.000000 33.657007
RightHand -13.738980 -0.000000 -21.045618
RightHandThumb1 -24.326973 -0.000000 -32.862282
LeftUpLeg -94.537342 16.967897 -33.695202
LeftLeg 128.603202 -0.000000 -0.000000
LeftFoot 27.233184 5.064520 -1.422277
LeftToeBase 24.799220 -0.000000 -0.000000
RightUpLeg -90.101190 -20.715401 2.363498
RightLeg 145.542913 -0.000000 -0.000000
RightFoot 40.393207 -17.299779 -1.840282
RightToeBase -56.127822 -0.000000 0.000000
1275
root 19.581308 7.645330 -14.360257 -214.498917 10.613109 -149.559826
Spine 59.874743 -12.792741 18.192504
Head 18.498258 3.483110 -1.827059
LeftShoulder 0.408403 -18.066429 16.224136
LeftArm -11.130067 35.579450 -95.901407
LeftForeArm -36.227756 -0.000000 9.892933
LeftHand -4.248988 -0.000000 4.172485
LeftHandThumb1 -26.253704 0.000000 33.147579
RightShoulder -7.186929 -16.499376 9.984923
RightArm 17.186994 -29.158059 62.559406
RightForeArm -24.346458 -0.000000 31.830815
RightHand -13.251096 -0.000000 -20.571088
RightHandThumb1 -24.326973 -0.000000 -32.862282
LeftUpLeg -94.324365 15.854552 -32.949280
LeftLeg 128.690462 -0.000000 -0.000000
LeftFoot 26.374289 4.067538 -1.861896
LeftToeBase 24.905907 -0.000000 -0.000000
RightUpLeg -89.341141 -20.544361 2.601062
RightLeg 145.142772 -0.000000 -0.000000
RightFoot 39.736776 -17.453086 -1.622557
RightToeBase -55.432860 -0.000000 0.000000
1276
root 19.567883 7.819931 -14.317379 -214.445576 10.423789 -149.579884
Spine 60.376052 -12.511939 18.264347
Head 17.965902 3.569440 -1.990779
LeftShoulder 0.541452 -18.441678 15.526624
LeftArm -10.202881 35.665129 -94.981600
LeftForeArm -36.076922 -0.000000 8.522310
LeftHand -3.815140 -0.000000 3.697721
LeftHandThumb1 -26.253704 0.000000 33.147579
RightShoulder -6.814930 -16.290234 10.411142
RightArm 18.455516 -29.580319 61.432959
RightForeArm -23.595241 -0.000000 30.093319
RightHand -12.873481 -0.000000 -19.880658
RightHandThumb1 -24.326973 -0.000000 -32.862282
LeftUpLeg -94.132729 14.740338 -32.319151
LeftLeg 128.735362 -0.000000 -0.000000
LeftFoot 25.817356 3.205470 -2.103716
LeftToeBase 23.981063 -0.000000 -0.000000
RightUpLeg -88.562725 -20.443110 2.694050
RightLeg 144.793302 -0.000000 -0.000000
RightFoot 39.049837 -17.481839 -1.449755
RightToeBase -54.320362 -0.000000 0.000000
1277
root 19.548471 7.989755 -14.285077 -214.365702 10.141045 -149.619280
Spine 60.803443 -12.279163 18.253018
Head 17.474663 3.612470 -2.153096
LeftShoulder 0.589435 -18.659767 14.794269
LeftArm -9.088766 35.737896 -93.930159
LeftForeArm -35.867419 -0.000000 7.107205
LeftHand -3.291938 -0.000000 3.293135
LeftHandThumb1 -26.253704 0.000000 33.147579
RightShoulder -6.400901 -16.232236 10.909318
RightArm 19.851376 -30.067366 60.059185
RightForeArm -22.422451 -0.000000 28.424208
RightHand -12.433243 -0.000000 -19.457240
RightHandThumb1 -24.326973 -0.000000 -32.862282
LeftUpLeg -93.913123 13.507358 -31.712807
LeftLeg 128.844533 -0.000000 -0.000000
LeftFoot 24.628450 2.147963 -1.913865
LeftToeBase 23.973487 -0.000000 -0.000000
RightUpLeg -87.820850 -20.464691 2.685164
RightLeg 144.475444 -0.000000 -0.000000
RightFoot 38.538151 -17.423933 -1.388546
RightToeBase -53.639021 -0.000000 0.000000
1278
root 19.526213 8.175714 -14.250083 -214.469971 9.927402 -149.677914
Spine 61.509597 -11.969571 18.317637
Head 16.775499 3.561270 -2.304892
LeftShoulder 0.721580 -19.150021 14.082243
LeftArm -8.193710 35.655031 -92.980176
LeftForeArm -35.699634 -0.000000 5.857708
LeftHand -2.862679 0.000000 2.914550
LeftHandThumb1 -26.253704 0.000000 33.147579
RightShoulder -5.959748 -15.874744 11.293211
RightArm 20.870720 -30.413822 59.029835
RightForeArm -21.207241 -0.000000 26.892669
RightHand -12.103386 -0.000000 -18.902554
RightHandThumb1 -24.326973 -0.000000 -32.862282
LeftUpLeg -93.564396 12.498771 -31.203465
LeftLeg 128.968648 -0.000000 -0.000000
LeftFoot 23.191253 2.020982 -1.992831
LeftToeBase 22.930438 -0.000000 -0.000000
RightUpLeg -86.839424 -20.438237 2.654031
RightLeg 144.127322 -0.000000 -0.000000
RightFoot 37.840536 -17.405641 -1.226189
RightToeBase -52.901928 -0.000000 0.000000
